<svg width="1467" height="821" viewBox="0 0 1467 821" fill="none" xmlns="http://www.w3.org/2000/svg">
<g clip-path="url(#clip0_428_79)">
<path d="M773.47 771.17H706.801C711.041 753.528 713.582 735.555 714.413 717.261C715.216 698.967 715.622 680.663 715.622 662.35V490.308L764.63 539.146V662.35C764.63 680.663 765.055 698.967 765.858 717.261C766.689 735.555 769.21 753.528 773.47 771.17Z" fill="#3B2921"/>
<path d="M900.413 237.156C891.592 232.576 882.346 228.911 872.722 226.106C863.079 223.348 852.057 221.384 839.637 220.241C827.208 219.089 812.012 218.522 794.058 218.522H764.629V446.419L715.621 397.43V218.522H686.211C668.578 218.522 653.457 219.089 640.867 220.241C628.297 221.384 617.19 223.348 607.537 226.106C597.895 228.911 588.677 232.576 579.855 237.156L591.623 179.299H715.621V158.606C715.621 140.312 715.215 122.018 714.412 103.724C713.581 85.4108 711.04 67.4473 706.8 49.7954H773.469C769.209 67.4473 766.688 85.4108 765.856 103.724C765.054 122.018 764.629 140.312 764.629 158.606V179.299H888.645L900.413 237.156Z" fill="#3B2921"/>
<path d="M877.47 376.162H876.157C864.484 358.369 848.806 343.635 829.114 331.962C813.228 322.555 793.329 316.935 769.387 315.112V279.828C790.203 280.772 807.703 283.417 821.889 287.752C839.975 293.296 856.173 301.616 870.472 312.704L877.47 376.162Z" fill="#3B2921"/>
<path d="M882.733 564.477L838.957 520.72V444.437H882.733V564.477Z" fill="#3B2921"/>
<path d="M841.43 615.676C834.8 618.292 828.141 620.521 821.455 622.353C804.757 626.934 787.407 629.673 769.387 630.561V595.682C781.778 595.125 793.593 593.293 804.823 590.185C807.741 589.383 810.556 588.533 813.266 587.616L841.43 615.676Z" fill="#3B2921"/>
<path d="M813.266 587.616C810.556 588.532 807.741 589.382 804.823 590.185C793.593 593.292 781.778 595.125 769.387 595.682V630.56C787.407 629.673 804.757 626.934 821.455 622.353C828.141 620.521 834.8 618.292 841.43 615.676L813.266 587.616ZM838.955 444.437V520.72L882.731 564.477V444.437H838.955ZM870.472 312.704C856.173 301.616 839.975 293.296 821.889 287.752C807.703 283.417 790.203 280.772 769.387 279.828V315.112C793.329 316.935 813.228 322.555 829.114 331.962C848.806 343.635 864.484 358.369 876.157 376.162H877.47L870.472 312.704Z" fill="#3B2921"/>
<path d="M633.406 408.386C629.222 422.978 627.125 438.496 627.125 454.948C627.125 474.205 630.337 492.292 636.759 509.216C643.172 526.141 652.361 541.092 664.328 554.078C676.294 567.064 690.442 577.274 706.781 584.716C708.131 585.33 709.491 585.916 710.861 586.482V625.838C701.879 623.732 693.228 620.964 684.898 617.536C663.308 608.639 644.702 596.163 629.099 580.117C613.488 564.07 601.37 545.398 592.766 524.092C584.162 502.804 579.855 479.749 579.855 454.948C579.855 430.147 584.021 407.092 592.332 385.795C594.041 381.422 595.892 377.153 597.904 373.007C598.631 371.496 599.377 370.004 600.152 368.521C607.547 354.279 616.765 341.434 627.787 329.987C630.025 327.664 632.32 325.416 634.681 323.253C635.852 322.167 637.033 321.1 638.232 320.061C651.152 308.831 665.754 299.746 682.055 292.785C691.216 288.875 700.821 285.824 710.861 283.633V320.987C701.936 324.103 693.577 328.344 685.776 333.708C679.07 338.317 672.913 343.465 667.312 349.141C666.188 350.265 665.102 351.417 664.035 352.588C655.459 361.938 648.262 372.639 642.445 384.699C639.545 390.697 637.061 396.873 634.983 403.23C634.436 404.93 633.907 406.649 633.406 408.386Z" fill="#3B2921"/>
<path d="M624.356 326.682C613.4 338.053 604.116 350.888 596.627 365.017L568.302 336.788V541.668C568.302 559.972 568.709 578.266 569.521 596.569C570.342 614.873 572.874 632.837 577.124 650.479H512.91C517.151 632.837 519.691 614.873 520.513 596.569C521.325 578.266 521.741 559.972 521.741 541.668V379.43C521.741 361.136 521.325 342.842 520.513 324.529C519.691 306.235 517.151 288.262 512.91 270.619H582.025L631.307 319.882C628.927 322.073 626.613 324.349 624.356 326.682Z" fill="#3B2921"/>
<path d="M582.025 270.619H512.91C517.151 288.262 519.691 306.235 520.513 324.529C521.325 342.842 521.741 361.136 521.741 379.43V541.668C521.741 559.972 521.325 578.266 520.513 596.569C519.691 614.873 517.151 632.837 512.91 650.479H577.124C572.874 632.837 570.342 614.873 569.521 596.569C568.709 578.266 568.302 559.972 568.302 541.668V336.788L596.627 365.017C604.116 350.888 613.4 338.053 624.356 326.682C626.613 324.349 628.927 322.073 631.307 319.882L582.025 270.619Z" fill="#3B2921"/>
<path d="M946.079 596.323C946.892 614.787 949.423 632.836 953.673 650.478H883.094L849.839 617.337L846.213 613.72L818.257 585.868L814.536 582.157L769.391 537.172L764.631 532.431L715.623 483.593L710.863 478.843L638.801 407.036C640.945 400.028 643.599 393.275 646.734 386.768C652.288 375.264 659.201 364.97 667.418 355.969L710.863 399.404L715.623 404.165L764.631 453.153L769.391 457.913L834.199 522.694L838.959 527.454L882.735 571.22L887.495 575.97L898.29 586.765V378.938C898.29 360.644 897.874 342.35 897.062 324.046C896.24 305.743 893.709 287.77 889.469 270.127H953.673C949.423 287.77 946.892 305.743 946.079 324.046C945.258 342.35 944.851 360.644 944.851 378.938V541.177C944.851 559.48 945.258 577.859 946.079 596.323Z" fill="#3B2921"/>
</g>
<defs>
<clipPath id="clip0_428_79">
<rect width="440.758" height="721.375" fill="white" transform="translate(512.91 49.7954)"/>
</clipPath>
</defs>
</svg>
